{
    "asset": {
        "generator": "COLLADA2GLTF",
        "version": "2.0"
    },
    "scenes": [
        {
            "nodes": [
                0
            ]
        }
    ],
    "scene": 0,
    "nodes": [
        {
            "children": [
                1
            ],
            "matrix": [
                1.0,
                0.0,
                0.0,
                0.0,
                0.0,
                0.0,
                -1.0,
                0.0,
                0.0,
                1.0,
                0.0,
                0.0,
                0.0,
                0.0,
                0.0,
                1.0
            ],
            "name": "Z_UP"
        },
        {
            "mesh": 0,
            "children": [
                7,
                6,
                5,
                4,
                3,
                2
            ],
            "name": "SketchUp"
        },
        {
            "matrix": [
                -0.9782246351242064,
                -0.2075494080781937,
                -1.7347230623865009e-18,
                0.0,
                0.015714239329099656,
                -0.07406455278396607,
                0.9971296191215516,
                0.0,
                -0.2069536000490189,
                0.9754167199134828,
                0.07571324706077576,
                0.0,
                -11.948236465454102,
                926.247802734375,
                -310.9986267089844,
                1.0
            ],
            "camera": 0,
            "name": "skp_camera_Last_Saved_SketchUp_View"
        },
        {
            "mesh": 1
        },
        {
            "mesh": 2
        },
        {
            "mesh": 3
        },
        {
            "mesh": 4
        },
        {
            "mesh": 5
        }
    ],
    "cameras": [
        {
            "perspective": {
                "yfov": 0.6108646988868713,
                "zfar": 25.399999618530278,
                "znear": 0.02539999969303608
            },
            "type": "perspective",
            "name": "skp_camera_Last_Saved_SketchUp_View"
        }
    ],
    "meshes": [
        {
            "primitives": [
                {
                    "attributes": {
                        "NORMAL": 1,
                        "POSITION": 2,
                        "TEXCOORD_0": 3
                    },
                    "indices": 0,
                    "mode": 4,
                    "material": 0
                }
            ],
            "name": "ID3"
        },
        {
            "primitives": [
                {
                    "attributes": {
                        "POSITION": 5
                    },
                    "indices": 4,
                    "mode": 1,
                    "material": 1
                }
            ],
            "name": "ID53"
        },
        {
            "primitives": [
                {
                    "attributes": {
                        "NORMAL": 7,
                        "POSITION": 8
                    },
                    "indices": 6,
                    "mode": 4,
                    "material": 2
                }
            ],
            "name": "ID47"
        },
        {
            "primitives": [
                {
                    "attributes": {
                        "NORMAL": 10,
                        "POSITION": 11,
                        "TEXCOORD_0": 12
                    },
                    "indices": 9,
                    "mode": 4,
                    "material": 3
                },
                {
                    "attributes": {
                        "NORMAL": 14,
                        "POSITION": 15,
                        "TEXCOORD_0": 16
                    },
                    "indices": 13,
                    "mode": 4,
                    "material": 4
                }
            ],
            "name": "ID39"
        },
        {
            "primitives": [
                {
                    "attributes": {
                        "NORMAL": 18,
                        "POSITION": 19,
                        "TEXCOORD_0": 20
                    },
                    "indices": 17,
                    "mode": 4,
                    "material": 5
                },
                {
                    "attributes": {
                        "NORMAL": 22,
                        "POSITION": 23
                    },
                    "indices": 21,
                    "mode": 4,
                    "material": 6
                }
            ],
            "name": "ID26"
        },
        {
            "primitives": [
                {
                    "attributes": {
                        "NORMAL": 25,
                        "POSITION": 26,
                        "TEXCOORD_0": 27
                    },
                    "indices": 24,
                    "mode": 4,
                    "material": 7
                },
                {
                    "attributes": {
                        "NORMAL": 29,
                        "POSITION": 30
                    },
                    "indices": 28,
                    "mode": 4,
                    "material": 8
                }
            ],
            "name": "ID16"
        }
    ],
    "accessors": [
        {
            "bufferView": 0,
            "byteOffset": 0,
            "componentType": 5123,
            "count": 90,
            "max": [
                29
            ],
            "min": [
                0
            ],
            "type": "SCALAR"
        },
        {
            "bufferView": 1,
            "byteOffset": 0,
            "componentType": 5126,
            "count": 30,
            "max": [
                2.3214860287247678e-17,
                -0.9366722106933594,
                0.3502074182033539
            ],
            "min": [
                2.3214860287247678e-17,
                -0.9366722106933594,
                0.3502074182033539
            ],
            "type": "VEC3"
        },
        {
            "bufferView": 1,
            "byteOffset": 360,
            "componentType": 5126,
            "count": 30,
            "max": [
                2.5,
                1.5759330987930298,
                4.215025424957275
            ],
            "min": [
                -2.5,
                0.0,
                0.0
            ],
            "type": "VEC3"
        },
        {
            "bufferView": 2,
            "byteOffset": 0,
            "componentType": 5126,
            "count": 30,
            "max": [
                3.785583972930908,
                1.0
            ],
            "min": [
                -3.785583972930908,
                -5.814052104949951
            ],
            "type": "VEC2"
        },
        {
            "bufferView": 0,
            "byteOffset": 180,
            "componentType": 5123,
            "count": 2,
            "max": [
                1
            ],
            "min": [
                0
            ],
            "type": "SCALAR"
        },
        {
            "bufferView": 1,
            "byteOffset": 720,
            "componentType": 5126,
            "count": 2,
            "max": [
                2.400000095367432,
                852.40673828125,
                -318.594970703125
            ],
            "min": [
                2.400000095367432,
                852.2919311523438,
                -318.594970703125
            ],
            "type": "VEC3"
        },
        {
            "bufferView": 0,
            "byteOffset": 184,
            "componentType": 5123,
            "count": 354,
            "max": [
                149
            ],
            "min": [
                0
            ],
            "type": "SCALAR"
        },
        {
            "bufferView": 1,
            "byteOffset": 744,
            "componentType": 5126,
            "count": 150,
            "max": [
                0.99882972240448,
                1.0,
                0.7351299524307251
            ],
            "min": [
                -0.7284663319587708,
                -1.0,
                -0.9434847235679628
            ],
            "type": "VEC3"
        },
        {
            "bufferView": 1,
            "byteOffset": 2544,
            "componentType": 5126,
            "count": 150,
            "max": [
                2.5,
                861.7119750976563,
                -314.1885986328125
            ],
            "min": [
                -2.5,
                853.6187744140625,
                -318.688720703125
            ],
            "type": "VEC3"
        },
        {
            "bufferView": 0,
            "byteOffset": 892,
            "componentType": 5123,
            "count": 75,
            "max": [
                36
            ],
            "min": [
                0
            ],
            "type": "SCALAR"
        },
        {
            "bufferView": 1,
            "byteOffset": 4344,
            "componentType": 5126,
            "count": 37,
            "max": [
                1.0,
                1.0,
                1.0
            ],
            "min": [
                -2.887646159391992e-17,
                -1.0,
                -1.0
            ],
            "type": "VEC3"
        },
        {
            "bufferView": 1,
            "byteOffset": 4788,
            "componentType": 5126,
            "count": 37,
            "max": [
                2.400000095367432,
                861.7119750976563,
                -315.0950927734375
            ],
            "min": [
                -4.399998664855957,
                852.40673828125,
                -318.594970703125
            ],
            "type": "VEC3"
        },
        {
            "bufferView": 2,
            "byteOffset": 240,
            "componentType": 5126,
            "count": 37,
            "max": [
                1304.8330078125,
                483.4273986816406
            ],
            "min": [
                -6.662629127502441,
                -1303.8330078125
            ],
            "type": "VEC2"
        },
        {
            "bufferView": 0,
            "byteOffset": 1042,
            "componentType": 5123,
            "count": 75,
            "max": [
                36
            ],
            "min": [
                0
            ],
            "type": "SCALAR"
        },
        {
            "bufferView": 1,
            "byteOffset": 5232,
            "componentType": 5126,
            "count": 37,
            "max": [
                2.887646159391992e-17,
                1.0,
                1.0
            ],
            "min": [
                -1.0,
                -1.0,
                -1.0
            ],
            "type": "VEC3"
        },
        {
            "bufferView": 1,
            "byteOffset": 5676,
            "componentType": 5126,
            "count": 37,
            "max": [
                2.400000095367432,
                861.7119750976563,
                -315.0950927734375
            ],
            "min": [
                -4.399998664855957,
                852.40673828125,
                -318.594970703125
            ],
            "type": "VEC3"
        },
        {
            "bufferView": 2,
            "byteOffset": 536,
            "componentType": 5126,
            "count": 37,
            "max": [
                403.87701416015627,
                150.3227996826172
            ],
            "min": [
                -2.062242031097412,
                -402.87701416015627
            ],
            "type": "VEC2"
        },
        {
            "bufferView": 0,
            "byteOffset": 1192,
            "componentType": 5123,
            "count": 333,
            "max": [
                218
            ],
            "min": [
                0
            ],
            "type": "SCALAR"
        },
        {
            "bufferView": 1,
            "byteOffset": 6120,
            "componentType": 5126,
            "count": 219,
            "max": [
                1.0,
                0.9366722106933594,
                1.0
            ],
            "min": [
                -1.0,
                -1.0,
                -1.0
            ],
            "type": "VEC3"
        },
        {
            "bufferView": 1,
            "byteOffset": 8748,
            "componentType": 5126,
            "count": 219,
            "max": [
                2.5,
                861.7119750976563,
                4.215025424957275
            ],
            "min": [
                -2.5,
                0.0,
                -318.688720703125
            ],
            "type": "VEC3"
        },
        {
            "bufferView": 2,
            "byteOffset": 832,
            "componentType": 5126,
            "count": 219,
            "max": [
                403.87701416015627,
                427.5091857910156
            ],
            "min": [
                -403.87701416015627,
                -425.5091857910156
            ],
            "type": "VEC2"
        },
        {
            "bufferView": 0,
            "byteOffset": 1858,
            "componentType": 5123,
            "count": 84,
            "max": [
                35
            ],
            "min": [
                0
            ],
            "type": "SCALAR"
        },
        {
            "bufferView": 1,
            "byteOffset": 11376,
            "componentType": 5126,
            "count": 36,
            "max": [
                0.7281686067581177,
                0.05694090947508812,
                0.7351299524307251
            ],
            "min": [
                -0.5373923182487488,
                -0.03265690803527832,
                -0.9984946250915529
            ],
            "type": "VEC3"
        },
        {
            "bufferView": 1,
            "byteOffset": 11808,
            "componentType": 5126,
            "count": 36,
            "max": [
                2.5,
                858.94189453125,
                -314.1885986328125
            ],
            "min": [
                -2.5,
                853.6324462890625,
                -315.3166198730469
            ],
            "type": "VEC3"
        },
        {
            "bufferView": 0,
            "byteOffset": 2026,
            "componentType": 5123,
            "count": 267,
            "max": [
                181
            ],
            "min": [
                0
            ],
            "type": "SCALAR"
        },
        {
            "bufferView": 1,
            "byteOffset": 12240,
            "componentType": 5126,
            "count": 182,
            "max": [
                1.0,
                0.3502074182033539,
                0.9366722106933594
            ],
            "min": [
                -1.0,
                -0.3502074182033539,
                -1.0
            ],
            "type": "VEC3"
        },
        {
            "bufferView": 1,
            "byteOffset": 14424,
            "componentType": 5126,
            "count": 182,
            "max": [
                2.400000095367432,
                861.7119750976563,
                4.1213579177856449
            ],
            "min": [
                -2.400000095367432,
                0.03502073138952255,
                -318.594970703125
            ],
            "type": "VEC3"
        },
        {
            "bufferView": 2,
            "byteOffset": 2584,
            "componentType": 5126,
            "count": 182,
            "max": [
                1304.8330078125,
                1378.953125
            ],
            "min": [
                -1304.8330078125,
                -1376.953125
            ],
            "type": "VEC2"
        },
        {
            "bufferView": 0,
            "byteOffset": 2560,
            "componentType": 5123,
            "count": 78,
            "max": [
                29
            ],
            "min": [
                0
            ],
            "type": "SCALAR"
        },
        {
            "bufferView": 1,
            "byteOffset": 16608,
            "componentType": 5126,
            "count": 30,
            "max": [
                0.555923581123352,
                -0.03466954827308655,
                0.9986453056335448
            ],
            "min": [
                -0.555923581123352,
                -0.05495509132742882,
                0.830510139465332
            ],
            "type": "VEC3"
        },
        {
            "bufferView": 1,
            "byteOffset": 16968,
            "componentType": 5126,
            "count": 30,
            "max": [
                2.400000095367432,
                858.94189453125,
                -314.2950134277344
            ],
            "min": [
                -2.400000095367432,
                853.6187744140625,
                -315.3166198730469
            ],
            "type": "VEC3"
        }
    ],
    "materials": [
        {
            "pbrMetallicRoughness": {
                "baseColorTexture": {
                    "index": 0
                },
                "metallicFactor": 0.0
            },
            "name": "ID5"
        },
        {
            "pbrMetallicRoughness": {
                "baseColorFactor": [
                    1.0,
                    1.0,
                    1.0,
                    1.0
                ],
                "metallicFactor": 0.0
            },
            "name": "ID55"
        },
        {
            "pbrMetallicRoughness": {
                "baseColorFactor": [
                    1.0,
                    1.0,
                    1.0,
                    1.0
                ],
                "metallicFactor": 0.0
            },
            "name": "ID21"
        },
        {
            "pbrMetallicRoughness": {
                "baseColorTexture": {
                    "index": 0
                },
                "metallicFactor": 0.0
            },
            "name": "ID5"
        },
        {
            "pbrMetallicRoughness": {
                "baseColorTexture": {
                    "index": 1
                },
                "metallicFactor": 0.0
            },
            "name": "ID28"
        },
        {
            "pbrMetallicRoughness": {
                "baseColorTexture": {
                    "index": 1
                },
                "metallicFactor": 0.0
            },
            "name": "ID28"
        },
        {
            "pbrMetallicRoughness": {
                "baseColorFactor": [
                    1.0,
                    1.0,
                    1.0,
                    1.0
                ],
                "metallicFactor": 0.0
            },
            "name": "ID21"
        },
        {
            "pbrMetallicRoughness": {
                "baseColorTexture": {
                    "index": 0
                },
                "metallicFactor": 0.0
            },
            "name": "ID5"
        },
        {
            "pbrMetallicRoughness": {
                "baseColorFactor": [
                    1.0,
                    1.0,
                    1.0,
                    1.0
                ],
                "metallicFactor": 0.0
            },
            "name": "ID21"
        }
    ],
    "textures": [
        {
            "sampler": 0,
            "source": 0
        },
        {
            "sampler": 0,
            "source": 1
        }
    ],
    "images": [
        {
            "uri": "Concrete_Scored_Jointless.jpg"
        },
        {
            "uri": "Sketchy_Stone.jpg"
        }
    ],
    "samplers": [
        {
            "magFilter": 9729,
            "minFilter": 9986,
            "wrapS": 10497,
            "wrapT": 10497
        }
    ],
    "bufferViews": [
        {
            "buffer": 0,
            "byteOffset": 21368,
            "byteLength": 2716,
            "target": 34963
        },
        {
            "buffer": 0,
            "byteOffset": 0,
            "byteLength": 17328,
            "byteStride": 12,
            "target": 34962
        },
        {
            "buffer": 0,
            "byteOffset": 17328,
            "byteLength": 4040,
            "byteStride": 8,
            "target": 34962
        }
    ],
    "buffers": [
        {
            "byteLength": 24084,
            "uri": "data:application/octet-stream;base64,"
        }
    ]
}
